{"asset":{"generator":"glTF-Transform v4.0.1","version":"2.0","extras":{"author":"Stephengury (https://sketchfab.com/Stephengury)","license":"CC-BY-4.0 (http://creativecommons.org/licenses/by/4.0/)","source":"https://sketchfab.com/3d-models/pigeons-d8b0f6155ff9433aaf750ac706515aad","title":"Pigeons"}},"accessors":[{"type":"VEC3","componentType":5126,"count":5650,"max":[236.56898498535156,117.69660186767578,98.7835693359375],"min":[-236.56898498535156,-117.69660186767578,-98.7835693359375],"bufferView":0,"byteOffset":0},{"type":"VEC3","componentType":5126,"count":5650,"bufferView":0,"byteOffset":12},{"type":"VEC2","componentType":5126,"count":5650,"bufferView":0,"byteOffset":24},{"type":"SCALAR","componentType":5125,"count":29994,"bufferView":1,"byteOffset":0},{"type":"SCALAR","componentType":5125,"count":21072,"bufferView":1,"byteOffset":119976},{"type":"SCALAR","componentType":5125,"count":21072,"bufferView":1,"byteOffset":204264},{"type":"SCALAR","componentType":5125,"count":29994,"bufferView":1,"byteOffset":288552},{"type":"VEC3","componentType":5126,"count":4127,"max":[126.31199645996094,40.65659713745117,96.96302032470703],"min":[-126.31199645996094,-40.0783805847168,-96.96302032470703],"bufferView":2,"byteOffset":0},{"type":"VEC3","componentType":5126,"count":4127,"bufferView":2,"byteOffset":12},{"type":"VEC2","componentType":5126,"count":4127,"bufferView":2,"byteOffset":24},{"type":"VEC3","componentType":5126,"count":4127,"max":[155.2219696044922,49.20652389526367,119.15607452392578],"min":[-155.2219696044922,-50.00688171386719,-119.15607452392578],"bufferView":3,"byteOffset":0},{"type":"VEC3","componentType":5126,"count":4127,"bufferView":3,"byteOffset":12},{"type":"VEC2","componentType":5126,"count":4127,"bufferView":3,"byteOffset":24},{"type":"VEC3","componentType":5126,"count":5650,"max":[170.92930603027344,233.5023193359375,113.16990661621094],"min":[-159.72003173828125,-230.14425659179688,-110.78337860107422],"bufferView":4,"byteOffset":0},{"type":"VEC3","componentType":5126,"count":5650,"bufferView":4,"byteOffset":12},{"type":"VEC2","componentType":5126,"count":5650,"bufferView":4,"byteOffset":24}],"bufferViews":[{"buffer":0,"byteOffset":0,"byteLength":180800,"byteStride":32,"target":34962},{"buffer":0,"byteOffset":180800,"byteLength":408528,"target":34963},{"buffer":0,"byteOffset":589328,"byteLength":132064,"byteStride":32,"target":34962},{"buffer":0,"byteOffset":721392,"byteLength":132064,"byteStride":32,"target":34962},{"buffer":0,"byteOffset":853456,"byteLength":180800,"byteStride":32,"target":34962}],"samplers":[{"magFilter":9729,"minFilter":9987,"wrapS":10497,"wrapT":10497}],"textures":[{"source":0,"sampler":0},{"source":1,"sampler":0},{"source":2,"sampler":0}],"images":[{"mimeType":"image/jpeg","uri":"textures/pigeon01_diffuse.jpeg"},{"mimeType":"image/jpeg","uri":"textures/pigeon02_diffuse.jpeg"},{"mimeType":"image/jpeg","uri":"textures/pigeon03_diffuse.jpeg"}],"buffers":[{"uri":"scene.bin","byteLength":1034256}],"materials":[{"name":"pigeon01","doubleSided":true,"pbrMetallicRoughness":{"baseColorFactor":[0.8,0.8,0.8,1],"metallicFactor":0,"baseColorTexture":{"index":0}},"extensions":{"KHR_materials_ior":{"ior":1000},"KHR_materials_specular":{"specularColorFactor":[0,0,0]}}},{"name":"pigeon02","doubleSided":true,"pbrMetallicRoughness":{"baseColorFactor":[0.8,0.8,0.8,1],"roughnessFactor":0.6,"metallicFactor":0,"baseColorTexture":{"index":1}},"extensions":{"KHR_materials_ior":{"ior":1000},"KHR_materials_specular":{"specularColorFactor":[0,0,0]}}},{"name":"pigeon03","doubleSided":true,"pbrMetallicRoughness":{"baseColorFactor":[0.8,0.8,0.8,1],"roughnessFactor":0.6,"metallicFactor":0,"baseColorTexture":{"index":2}},"extensions":{"KHR_materials_ior":{"ior":1000},"KHR_materials_specular":{"specularColorFactor":[0,0,0]}}},{"name":"pigeon04","doubleSided":true,"pbrMetallicRoughness":{"baseColorFactor":[0.8,0.8,0.8,1],"roughnessFactor":0.6,"metallicFactor":0,"baseColorTexture":{"index":0}},"extensions":{"KHR_materials_ior":{"ior":1000},"KHR_materials_specular":{"specularColorFactor":[0,0,0]}}}],"meshes":[{"name":"pigeon01_pigeon01_0","primitives":[{"attributes":{"NORMAL":1,"POSITION":0,"TEXCOORD_0":2},"mode":4,"material":0,"indices":3}]},{"name":"pigeon02_pigeon02_0","primitives":[{"attributes":{"NORMAL":8,"POSITION":7,"TEXCOORD_0":9},"mode":4,"material":1,"indices":4}]},{"name":"pigeon03_pigeon03_0","primitives":[{"attributes":{"NORMAL":11,"POSITION":10,"TEXCOORD_0":12},"mode":4,"material":2,"indices":5}]},{"name":"pigeon04_pigeon04_0","primitives":[{"attributes":{"NORMAL":14,"POSITION":13,"TEXCOORD_0":15},"mode":4,"material":3,"indices":6}]}],"nodes":[{"name":"Sketchfab_model","rotation":[-0.7071067811865475,0,0,0.7071067811865476],"children":[1]},{"name":"pigeon.FBX","rotation":[0.7071067811865475,0,0,0.7071067811865476],"scale":[0.0010000000474974513,0.0010000000474974513,0.0010000000474974513],"children":[2]},{"name":"RootNode","children":[3,5,7,9,11]},{"name":"pigeon01","translation":[7.045928955078125,7.106209754943848,17.118881225585938],"rotation":[-0.5745175714724543,0.41222513274834804,0.41222513274834804,0.5745175714724546],"scale":[0.06969758868217467,0.06969758868217467,0.06969758868217468],"children":[4]},{"name":"pigeon01_pigeon01_0","mesh":0},{"name":"pigeon02","translation":[2.7208175659179688,6.957573890686035,-31.010711669921875],"rotation":[-0.6512087441483263,0.2755488550960786,0.2755488550960786,0.6512087441483263],"scale":[0.06969758868217468,0.06969758868217468,0.06969758868217468],"children":[6]},{"name":"pigeon02_pigeon02_0","mesh":1},{"name":"pigeon03","translation":[18.082534790039062,8.489785194396973,-9.418380737304688],"rotation":[-0.6910067418855044,0.15003227209097367,0.15003227209097367,0.6910067418855044],"scale":[0.06969758868217468,0.06969758868217468,0.06969758868217468],"children":[8]},{"name":"pigeon03_pigeon03_0","mesh":2},{"name":"pigeon04","translation":[20.309860229492188,21.21263885498047,-18.295318603515625],"rotation":[-0.7011858831144173,0.09131460628538315,0.09131460628538315,0.7011858831144174],"scale":[0.06969758868217468,0.06969758868217468,0.06969758868217468],"children":[10]},{"name":"pigeon04_pigeon04_0","mesh":3},{"name":"Camera001","translation":[-102.54739379882812,21.606035232543945,-2.8200924396514893],"rotation":[5.611243537530899e-32,-0.7002353950124287,-4.2877051757582615e-17,0.7139120334969763],"children":[12]},{"name":"Object_12"}],"scenes":[{"name":"Sketchfab_Scene","nodes":[0]}],"scene":0,"extensionsUsed":["KHR_materials_ior","KHR_materials_specular"]}